<svg width="18" height="18" viewBox="0 0 18 18" fill="none" xmlns="http://www.w3.org/2000/svg">
<path d="M0.838 4.07117e-05C0.656309 -0.00181657 0.480122 0.0623485 0.342178 0.180613C0.204233 0.298877 0.113913 0.463197 0.0880001 0.643041C0.030122 1.05385 0.000718466 1.46817 0 1.88304C0 6.43104 3.524 10.153 8 10.53V16.75C8 16.949 8.07902 17.1397 8.21967 17.2804C8.36032 17.421 8.55109 17.5 8.75 17.5C8.94891 17.5 9.13968 17.421 9.28033 17.2804C9.42098 17.1397 9.5 16.949 9.5 16.75V10.53C13.976 10.153 17.5 6.43004 17.5 1.88204C17.5 1.46204 17.4703 1.04871 17.411 0.642041C17.3849 0.46238 17.2945 0.298297 17.1565 0.180236C17.0186 0.0621747 16.8425 -0.00185004 16.661 4.07117e-05C14.9875 0.0141542 13.3531 0.507347 11.9511 1.42126C10.5491 2.33518 9.43828 3.63157 8.75 5.15704C8.06165 3.63142 6.95065 2.33492 5.54848 1.421C4.14631 0.507068 2.51166 0.0139639 0.838 4.07117e-05Z" fill="white"/>
</svg>
