<svg width="35" height="35" viewBox="0 0 35 35" fill="none" xmlns="http://www.w3.org/2000/svg">
<path d="M19.0458 4.78771C18.6357 4.37806 18.0797 4.14797 17.5 4.14797C16.9203 4.14797 16.3643 4.37806 15.9542 4.78771L7.70146 13.036C7.29109 13.4464 7.06055 14.003 7.06055 14.5833C7.06055 15.1637 7.29109 15.7203 7.70146 16.1306C8.11182 16.541 8.6684 16.7715 9.24875 16.7715C9.8291 16.7715 10.3857 16.541 10.796 16.1306L15.3125 11.6156V28.4375C15.3125 29.0177 15.543 29.5741 15.9532 29.9843C16.3634 30.3945 16.9198 30.625 17.5 30.625C18.0802 30.625 18.6366 30.3945 19.0468 29.9843C19.457 29.5741 19.6875 29.0177 19.6875 28.4375V11.6156L24.2025 16.1306C24.4057 16.3338 24.6469 16.495 24.9124 16.605C25.1779 16.7149 25.4624 16.7715 25.7498 16.7715C26.0371 16.7715 26.3217 16.7149 26.5872 16.605C26.8527 16.495 27.0939 16.3338 27.2971 16.1306C27.5003 15.9274 27.6615 15.6862 27.7714 15.4207C27.8814 15.1552 27.938 14.8707 27.938 14.5833C27.938 14.296 27.8814 14.0114 27.7714 13.7459C27.6615 13.4805 27.5003 13.2392 27.2971 13.036L19.0458 4.78771Z" fill="white"/>
</svg>
