<svg width="35" height="35" viewBox="0 0 35 35" fill="none" xmlns="http://www.w3.org/2000/svg">
<path d="M15.9542 30.2123C16.3643 30.6219 16.9203 30.852 17.5 30.852C18.0797 30.852 18.6357 30.6219 19.0458 30.2123L27.2985 21.964C27.7089 21.5536 27.9395 20.997 27.9395 20.4167C27.9395 19.8363 27.7089 19.2797 27.2985 18.8694C26.8882 18.459 26.3316 18.2285 25.7513 18.2285C25.1709 18.2285 24.6143 18.459 24.204 18.8694L19.6875 23.3844L19.6875 6.5625C19.6875 5.98234 19.457 5.42594 19.0468 5.01571C18.6366 4.60547 18.0802 4.375 17.5 4.375C16.9198 4.375 16.3634 4.60547 15.9532 5.01571C15.543 5.42594 15.3125 5.98234 15.3125 6.5625L15.3125 23.3844L10.7975 18.8694C10.5943 18.6662 10.3531 18.505 10.0876 18.395C9.82212 18.2851 9.53757 18.2285 9.25021 18.2285C8.96285 18.2285 8.67831 18.2851 8.41282 18.395C8.14734 18.505 7.90611 18.6662 7.70292 18.8694C7.49972 19.0726 7.33854 19.3138 7.22858 19.5793C7.11861 19.8448 7.06201 20.1293 7.06201 20.4167C7.06201 20.704 7.11861 20.9886 7.22858 21.2541C7.33854 21.5195 7.49972 21.7608 7.70292 21.964L15.9542 30.2123Z" fill="white"/>
</svg>
