<svg width="16" height="16" viewBox="0 0 16 16" fill="none" xmlns="http://www.w3.org/2000/svg">
<path fill-rule="evenodd" clip-rule="evenodd" d="M12.027 4.732C12.2307 4.56234 12.4935 4.48051 12.7575 4.50451C13.0215 4.52851 13.2652 4.65638 13.435 4.86L15.518 7.36C15.6803 7.56451 15.7561 7.82436 15.7294 8.08404C15.7026 8.34373 15.5754 8.58266 15.3748 8.74978C15.1743 8.91691 14.9163 8.99898 14.6561 8.97847C14.3958 8.95796 14.1539 8.83648 13.982 8.64L11.899 6.14C11.7293 5.93628 11.6475 5.67353 11.6715 5.4095C11.6955 5.14547 11.8234 4.90178 12.027 4.732Z" fill="white"/>
<path fill-rule="evenodd" clip-rule="evenodd" d="M12.027 11.268C11.8232 11.0984 11.6952 10.8547 11.671 10.5907C11.6468 10.3267 11.7285 10.0638 11.898 9.86L13.982 7.36C14.0649 7.25554 14.1678 7.16872 14.2847 7.10463C14.4017 7.04055 14.5302 7.00049 14.6629 6.98683C14.7955 6.97316 14.9296 6.98616 15.0571 7.02506C15.1846 7.06396 15.3031 7.12798 15.4055 7.21334C15.508 7.29871 15.5923 7.40369 15.6536 7.52213C15.7148 7.64056 15.7518 7.77006 15.7623 7.90298C15.7727 8.03591 15.7565 8.1696 15.7146 8.29617C15.6726 8.42274 15.6058 8.53964 15.518 8.64L13.435 11.14C13.2652 11.3436 13.0215 11.4715 12.7575 11.4955C12.4935 11.5195 12.2307 11.4377 12.027 11.268Z" fill="white"/>
<path fill-rule="evenodd" clip-rule="evenodd" d="M14.5 8C14.5 8.26522 14.3946 8.51957 14.2071 8.70711C14.0196 8.89464 13.7652 9 13.5 9H7C6.73478 9 6.48043 8.89464 6.29289 8.70711C6.10536 8.51957 6 8.26522 6 8C6 7.73478 6.10536 7.48043 6.29289 7.29289C6.48043 7.10536 6.73478 7 7 7H13.5C13.7652 7 14.0196 7.10536 14.2071 7.29289C14.3946 7.48043 14.5 7.73478 14.5 8ZM0 1C0 0.734784 0.105357 0.48043 0.292893 0.292893C0.48043 0.105357 0.734784 0 1 0H10C10.2652 0 10.5196 0.105357 10.7071 0.292893C10.8946 0.48043 11 0.734784 11 1C11 1.26522 10.8946 1.51957 10.7071 1.70711C10.5196 1.89464 10.2652 2 10 2H1C0.734784 2 0.48043 1.89464 0.292893 1.70711C0.105357 1.51957 0 1.26522 0 1ZM0 15C0 14.7348 0.105357 14.4804 0.292893 14.2929C0.48043 14.1054 0.734784 14 1 14H10C10.2652 14 10.5196 14.1054 10.7071 14.2929C10.8946 14.4804 11 14.7348 11 15C11 15.2652 10.8946 15.5196 10.7071 15.7071C10.5196 15.8946 10.2652 16 10 16H1C0.734784 16 0.48043 15.8946 0.292893 15.7071C0.105357 15.5196 0 15.2652 0 15Z" fill="white"/>
<path fill-rule="evenodd" clip-rule="evenodd" d="M10 0C10.2652 0 10.5196 0.105357 10.7071 0.292893C10.8946 0.48043 11 0.734784 11 1V5C11 5.26522 10.8946 5.51957 10.7071 5.70711C10.5196 5.89464 10.2652 6 10 6C9.73478 6 9.48043 5.89464 9.29289 5.70711C9.10536 5.51957 9 5.26522 9 5V1C9 0.734784 9.10536 0.48043 9.29289 0.292893C9.48043 0.105357 9.73478 0 10 0ZM10 10C10.2652 10 10.5196 10.1054 10.7071 10.2929C10.8946 10.4804 11 10.7348 11 11V15C11 15.2652 10.8946 15.5196 10.7071 15.7071C10.5196 15.8946 10.2652 16 10 16C9.73478 16 9.48043 15.8946 9.29289 15.7071C9.10536 15.5196 9 15.2652 9 15V11C9 10.7348 9.10536 10.4804 9.29289 10.2929C9.48043 10.1054 9.73478 10 10 10ZM1 0C1.26522 0 1.51957 0.105357 1.70711 0.292893C1.89464 0.48043 2 0.734784 2 1V15C2 15.2652 1.89464 15.5196 1.70711 15.7071C1.51957 15.8946 1.26522 16 1 16C0.734784 16 0.48043 15.8946 0.292893 15.7071C0.105357 15.5196 0 15.2652 0 15V1C0 0.734784 0.105357 0.48043 0.292893 0.292893C0.48043 0.105357 0.734784 0 1 0Z" fill="white"/>
</svg>
